<svg xmlns="http://www.w3.org/2000/svg" width="81.795" height="15.036" viewBox="0 0 81.795 15.036"><defs><style>.a{fill:#fa6980;}</style></defs><g transform="translate(-37.712 -16.826)"><path class="a" d="M9.555,0,15.33-14.7H11.487L7.728-3.885,3.969-14.7H-.021L5.691,0ZM21.567,0V-14.7H17.829V0ZM35.322-2.709,36.372,0h3.99L34.167-14.7H30.324L23.982,0h3.843L28.9-2.709ZM34.23-5.544H29.988l2.142-5.439Zm17.115-9.177h-8.8V-11.7h5.04v6.846c0,1.2-.588,1.806-1.575,1.806a4.719,4.719,0,0,1-3.087-1.638L41.2-2.184A6.5,6.5,0,0,0,46.263.168c3.129,0,5.082-1.806,5.082-4.935ZM66.591-11.76V-14.7H55.083V0H66.822V-2.94h-8V-5.9h7.014v-2.94H58.821V-11.76Zm9.345-3.108c-3.528,0-5.859,1.722-5.859,4.431,0,5.208,7.77,3.654,7.77,6.258,0,.84-.735,1.281-1.911,1.281a9.164,9.164,0,0,1-5.313-2.2L69.174-2.226A10.962,10.962,0,0,0,75.894.126c3.276,0,5.88-1.554,5.88-4.494,0-5.313-7.77-3.864-7.77-6.405,0-.714.651-1.071,1.617-1.071a10.956,10.956,0,0,1,4.7,1.533l1.407-2.919A11.034,11.034,0,0,0,75.936-14.868Z" transform="translate(37.733 31.694)"/></g></svg>